<svg width="640" height="360" viewBox="0 0 640 360" fill="none" xmlns="http://www.w3.org/2000/svg">
<path d="M203.364 162.632C201.188 168.456 198.788 173.896 196.164 178.952C193.604 184.008 190.788 188.616 187.716 192.776C186.82 194.056 185.732 194.632 184.452 194.504C183.428 194.376 182.628 193.96 182.052 193.256C181.476 192.552 181.028 191.88 180.708 191.24C179.94 189.64 179.076 187.624 178.116 185.192C177.22 182.76 176.356 180.328 175.524 177.896C174.692 175.4 173.956 173.16 173.316 171.176C172.676 169.128 172.228 167.752 171.972 167.048C171.588 166.728 171.14 166.28 170.628 165.704C170.116 165.128 169.7 164.52 169.38 163.88C169.06 163.176 168.9 162.504 168.9 161.864C168.9 161.224 169.188 160.648 169.764 160.136C170.596 159.752 171.396 159.624 172.164 159.752C172.932 159.88 173.636 160.168 174.276 160.616C174.916 161.064 175.492 161.608 176.004 162.248C176.516 162.888 176.932 163.496 177.252 164.072C177.764 165.544 178.34 167.24 178.98 169.16C179.62 171.016 180.26 172.968 180.9 175.016C181.604 177 182.276 178.952 182.916 180.872C183.556 182.792 184.164 184.52 184.74 186.056C185.892 184.584 187.076 182.792 188.292 180.68C189.572 178.504 190.82 176.232 192.036 173.864C193.316 171.496 194.532 169.096 195.684 166.664C196.836 164.168 197.892 161.832 198.852 159.656C199.236 158.76 199.78 157.992 200.484 157.352C201.188 156.712 201.892 156.456 202.596 156.584C203.492 156.904 203.972 157.608 204.036 158.696C204.164 159.784 203.94 161.096 203.364 162.632ZM234.28 161.48C234.536 163.272 234.728 165.192 234.856 167.24C235.048 169.224 235.176 171.24 235.24 173.288C235.368 175.336 235.432 177.32 235.432 179.24C235.432 181.16 235.4 182.888 235.336 184.424C237.384 185.832 238.6 187.08 238.984 188.168C239.432 189.256 239.496 190.216 239.176 191.048C238.792 192.2 238.088 192.808 237.064 192.872C236.104 192.872 234.984 192.52 233.704 191.816C232.808 192.456 231.784 193.16 230.632 193.928C229.48 194.632 228.264 195.336 226.984 196.04C225.704 196.68 224.424 197.256 223.144 197.768C221.864 198.28 220.68 198.632 219.592 198.824C217.544 199.144 215.688 198.76 214.024 197.672C212.424 196.584 211.336 194.952 210.76 192.776C210.376 191.304 210.28 189.8 210.472 188.264C210.664 186.664 211.144 185.16 211.912 183.752C212.68 182.28 213.704 180.968 214.984 179.816C216.328 178.664 217.896 177.768 219.688 177.128C220.136 176.936 220.744 176.776 221.512 176.648C222.344 176.52 223.176 176.488 224.008 176.552C224.904 176.552 225.8 176.712 226.696 177.032C227.592 177.352 228.424 177.896 229.192 178.664C229.192 177.576 229.16 176.392 229.096 175.112C229.096 173.768 229.064 172.424 229 171.08C228.936 169.736 228.84 168.488 228.712 167.336C228.648 166.12 228.552 165.096 228.424 164.264C228.296 163.304 227.912 162.728 227.272 162.536C226.696 162.28 225.96 162.312 225.064 162.632C223.528 163.144 221.736 164.136 219.688 165.608C217.64 167.08 215.688 168.648 213.832 170.312C213.256 170.888 212.584 171.144 211.816 171.08C211.112 171.016 210.504 170.728 209.992 170.216C209.48 169.704 209.192 169.128 209.128 168.488C209.064 167.784 209.32 167.048 209.896 166.28C210.984 165.128 212.2 163.944 213.544 162.728C214.888 161.512 216.296 160.424 217.768 159.464C219.24 158.44 220.744 157.608 222.28 156.968C223.816 156.328 225.352 155.976 226.888 155.912C229.128 155.848 230.856 156.36 232.072 157.448C233.288 158.472 234.024 159.816 234.28 161.48ZM223.144 182.12C222.312 182.312 221.416 182.728 220.456 183.368C219.56 183.944 218.728 184.68 217.96 185.576C217.256 186.408 216.712 187.368 216.328 188.456C216.008 189.48 216.008 190.504 216.328 191.528C216.456 191.912 216.712 192.2 217.096 192.392C217.544 192.584 218.024 192.616 218.536 192.488C220.072 192.168 221.8 191.56 223.72 190.664C225.704 189.704 227.272 188.68 228.424 187.592C228.424 187.208 228.232 186.728 227.848 186.152C227.464 185.512 227.016 184.904 226.504 184.328C225.992 183.688 225.416 183.144 224.776 182.696C224.2 182.248 223.656 182.056 223.144 182.12ZM266.86 172.328C266.412 172.584 265.868 172.68 265.228 172.616C264.588 172.488 264.044 172.072 263.596 171.368C262.572 170.024 261.324 169.352 259.852 169.352C258.508 169.352 257.292 169.672 256.204 170.312C255.18 170.888 254.252 171.688 253.42 172.712C252.652 173.672 252.012 174.76 251.5 175.976C250.988 177.192 250.636 178.408 250.444 179.624C250.124 181.864 250.508 183.752 251.596 185.288C252.684 186.824 254.38 187.592 256.684 187.592C258.54 187.656 260.62 187.304 262.924 186.536C265.292 185.704 267.5 184.648 269.548 183.368C270.444 182.984 271.276 182.76 272.044 182.696C272.812 182.632 273.452 183.016 273.964 183.848C274.604 184.872 274.444 185.928 273.484 187.016C272.524 188.04 271.244 188.968 269.644 189.8C268.044 190.696 266.348 191.496 264.556 192.2C262.828 192.84 261.068 193.32 259.276 193.64C257.484 193.896 255.692 193.896 253.9 193.64C252.172 193.384 250.54 192.776 249.004 191.816C246.572 190.152 245.1 187.784 244.588 184.712C244.076 181.64 244.3 178.472 245.26 175.208C245.644 173.992 246.188 172.776 246.892 171.56C247.596 170.28 248.428 169.128 249.388 168.104C250.412 167.08 251.532 166.216 252.748 165.512C253.964 164.744 255.308 164.232 256.78 163.976C259.148 163.592 261.42 163.848 263.596 164.744C265.772 165.576 267.212 167.144 267.916 169.448C268.044 169.96 268.044 170.504 267.916 171.08C267.788 171.592 267.436 172.008 266.86 172.328ZM301.641 163.496C303.561 164.2 305.161 165.256 306.441 166.664C307.785 168.072 308.809 169.672 309.513 171.464C310.217 173.192 310.601 174.984 310.665 176.84C310.793 178.696 310.601 180.424 310.089 182.024C309.385 183.816 308.489 185.576 307.401 187.304C306.313 189.032 305.065 190.568 303.657 191.912C302.249 193.256 300.649 194.344 298.857 195.176C297.065 196.008 295.081 196.424 292.905 196.424C290.281 196.424 288.073 195.816 286.281 194.6C284.489 193.384 283.081 191.816 282.057 189.896C281.033 187.976 280.361 185.8 280.041 183.368C279.785 180.936 279.849 178.504 280.233 176.072C280.489 174.28 280.905 172.552 281.481 170.888C282.121 169.16 282.921 167.656 283.881 166.376C284.841 165.032 285.929 163.944 287.145 163.112C288.425 162.28 289.865 161.864 291.465 161.864C292.361 161.864 293.481 162.056 294.825 162.44C296.169 162.76 297.417 163.24 298.569 163.88C299.401 163.112 300.425 162.984 301.641 163.496ZM297.993 170.504C297.289 170.056 296.457 169.48 295.497 168.776C294.601 168.008 293.801 167.624 293.097 167.624C292.329 167.624 291.561 167.976 290.793 168.68C290.089 169.384 289.449 170.216 288.873 171.176C288.361 172.072 287.913 173 287.529 173.96C287.145 174.92 286.889 175.688 286.761 176.264C286.569 177.224 286.441 178.376 286.377 179.72C286.313 181.064 286.409 182.408 286.665 183.752C286.921 185.032 287.401 186.216 288.105 187.304C288.873 188.328 289.993 189.064 291.465 189.512C292.361 189.768 293.417 189.768 294.633 189.512C295.849 189.192 297.033 188.648 298.185 187.88C299.401 187.112 300.521 186.088 301.545 184.808C302.633 183.528 303.465 182.056 304.041 180.392C304.681 178.536 304.681 176.616 304.041 174.632C303.465 172.584 302.249 171.112 300.393 170.216C299.945 170.536 299.497 170.696 299.049 170.696C298.601 170.696 298.249 170.632 297.993 170.504ZM355.84 197.96C355.2 197.704 354.528 197.224 353.824 196.52C353.184 195.816 352.8 195.208 352.672 194.696C352.352 193.416 352 191.848 351.616 189.992C351.232 188.136 350.848 186.152 350.464 184.04C350.08 181.928 349.696 179.784 349.312 177.608C348.992 175.368 348.672 173.256 348.352 171.272C348.032 169.224 347.776 167.4 347.584 165.8C347.392 164.2 347.264 162.92 347.2 161.96C347.2 160.936 347.552 160.36 348.256 160.232C349.92 160.04 351.104 160.648 351.808 162.056C352.128 163.208 352.48 164.52 352.864 165.992C353.248 167.464 353.632 169.064 354.016 170.792C355.552 170.216 356.928 169.48 358.144 168.584C359.36 167.688 360.352 166.728 361.12 165.704C361.952 164.616 362.528 163.528 362.848 162.44C363.232 161.288 363.296 160.168 363.04 159.08C362.72 157.864 361.824 156.968 360.352 156.392C358.88 155.816 357.216 155.528 355.36 155.528C352.8 155.528 350.496 156.008 348.448 156.968C346.464 157.864 344.64 158.984 342.976 160.328C342.208 160.904 341.376 161.096 340.48 160.904C339.52 160.648 338.88 160.04 338.56 159.08C338.56 158.184 338.72 157.416 339.04 156.776C339.36 156.136 339.776 155.56 340.288 155.048C342.272 153 344.608 151.56 347.296 150.728C350.048 149.896 352.928 149.48 355.936 149.48C358.368 149.48 360.704 149.864 362.944 150.632C365.248 151.4 367.2 152.776 368.8 154.76C369.568 156.04 369.952 157.384 369.952 158.792C370.016 160.2 369.824 161.576 369.376 162.92C368.928 164.264 368.288 165.544 367.456 166.76C366.688 167.976 365.888 169.032 365.056 169.928C366.656 169.8 368.288 169.96 369.952 170.408C371.616 170.792 373.088 171.496 374.368 172.52C375.712 173.48 376.8 174.76 377.632 176.36C378.464 177.96 378.88 179.88 378.88 182.12C378.88 184.68 378.304 187.016 377.152 189.128C376.064 191.24 374.592 193.032 372.736 194.504C370.944 195.976 368.864 197.128 366.496 197.96C364.192 198.792 361.792 199.208 359.296 199.208C358.208 199.208 357.344 198.888 356.704 198.248C356.384 198.248 356.096 198.152 355.84 197.96ZM355.456 177.8C355.968 180.296 356.448 182.888 356.896 185.576C357.344 188.264 357.824 190.952 358.336 193.64H358.72C360.128 193.64 361.664 193.384 363.328 192.872C365.056 192.36 366.656 191.624 368.128 190.664C369.6 189.64 370.816 188.424 371.776 187.016C372.736 185.544 373.184 183.912 373.12 182.12C372.8 180.52 372.064 179.304 370.912 178.472C369.76 177.64 368.352 177.096 366.688 176.84C365.088 176.584 363.296 176.584 361.312 176.84C359.392 177.032 357.44 177.352 355.456 177.8ZM393.188 152.072C393.508 159.048 394.052 166.28 394.82 173.768C395.588 181.192 396.42 188.296 397.316 195.08C397.508 197.896 396.74 199.336 395.012 199.4C394.628 199.4 394.244 199.272 393.859 199.016C393.476 198.696 393.124 198.312 392.804 197.864C392.484 197.416 392.164 196.936 391.844 196.424C391.588 195.912 391.428 195.464 391.364 195.08C390.852 191.816 390.372 188.36 389.924 184.712C389.476 181.064 389.06 177.416 388.676 173.768C388.356 170.056 388.068 166.44 387.812 162.92C387.556 159.4 387.396 156.168 387.332 153.224C387.46 151.688 387.684 150.408 388.004 149.384C388.324 148.296 388.996 147.784 390.02 147.848C391.108 147.912 391.876 148.36 392.324 149.192C392.836 149.96 393.124 150.92 393.188 152.072ZM427.266 163.496C429.186 164.2 430.786 165.256 432.066 166.664C433.41 168.072 434.434 169.672 435.138 171.464C435.842 173.192 436.226 174.984 436.29 176.84C436.418 178.696 436.226 180.424 435.714 182.024C435.01 183.816 434.114 185.576 433.026 187.304C431.938 189.032 430.69 190.568 429.282 191.912C427.874 193.256 426.274 194.344 424.482 195.176C422.69 196.008 420.706 196.424 418.53 196.424C415.906 196.424 413.698 195.816 411.906 194.6C410.114 193.384 408.706 191.816 407.682 189.896C406.658 187.976 405.986 185.8 405.666 183.368C405.41 180.936 405.474 178.504 405.858 176.072C406.114 174.28 406.53 172.552 407.106 170.888C407.746 169.16 408.546 167.656 409.506 166.376C410.466 165.032 411.554 163.944 412.77 163.112C414.05 162.28 415.49 161.864 417.09 161.864C417.986 161.864 419.106 162.056 420.45 162.44C421.794 162.76 423.042 163.24 424.194 163.88C425.026 163.112 426.05 162.984 427.266 163.496ZM423.618 170.504C422.914 170.056 422.082 169.48 421.122 168.776C420.226 168.008 419.426 167.624 418.722 167.624C417.954 167.624 417.186 167.976 416.418 168.68C415.714 169.384 415.074 170.216 414.498 171.176C413.986 172.072 413.538 173 413.154 173.96C412.77 174.92 412.514 175.688 412.386 176.264C412.194 177.224 412.066 178.376 412.002 179.72C411.938 181.064 412.034 182.408 412.29 183.752C412.546 185.032 413.026 186.216 413.73 187.304C414.498 188.328 415.618 189.064 417.09 189.512C417.986 189.768 419.042 189.768 420.258 189.512C421.474 189.192 422.658 188.648 423.81 187.88C425.026 187.112 426.146 186.088 427.17 184.808C428.258 183.528 429.09 182.056 429.666 180.392C430.306 178.536 430.306 176.616 429.666 174.632C429.09 172.584 427.874 171.112 426.018 170.216C425.57 170.536 425.122 170.696 424.674 170.696C424.226 170.696 423.874 170.632 423.618 170.504ZM461.471 170.504C461.983 171.208 462.463 172.104 462.911 173.192C463.423 174.216 463.807 175.272 464.062 176.36C464.447 178.088 464.863 179.976 465.311 182.024C465.823 184.008 466.303 186.088 466.751 188.264C467.263 190.44 467.711 192.648 468.095 194.888C468.543 197.128 468.927 199.272 469.247 201.32C469.631 204.136 469.407 206.824 468.575 209.384C467.807 212.008 466.495 214.344 464.639 216.392C462.783 218.44 460.479 220.072 457.727 221.288C454.975 222.504 451.871 223.176 448.415 223.304C447.647 223.24 446.847 222.856 446.015 222.152C445.183 221.512 444.767 220.84 444.767 220.136C444.703 219.432 445.023 218.856 445.727 218.408C446.495 218.024 447.263 217.768 448.031 217.64C449.375 217.512 450.751 217.224 452.159 216.776C453.631 216.392 455.007 215.816 456.287 215.048C457.567 214.28 458.719 213.352 459.743 212.264C460.831 211.176 461.663 209.896 462.239 208.424C462.687 207.272 462.911 205.864 462.911 204.2C462.911 202.472 462.783 200.776 462.527 199.112C462.335 197.448 462.047 195.88 461.663 194.408C461.343 192.872 461.055 191.72 460.799 190.952C460.351 191.4 459.775 191.88 459.071 192.392C458.431 192.904 457.695 193.384 456.863 193.832C456.031 194.28 455.103 194.632 454.079 194.888C453.119 195.144 452.127 195.24 451.103 195.176C450.015 195.112 448.991 194.728 448.031 194.024C447.135 193.32 446.335 192.424 445.631 191.336C444.927 190.184 444.351 188.872 443.903 187.4C443.519 185.928 443.327 184.392 443.327 182.792C443.455 178.952 444.415 175.56 446.207 172.616C448.063 169.608 451.007 167.272 455.039 165.608C455.359 165.544 455.775 165.48 456.287 165.416C456.863 165.352 457.439 165.352 458.015 165.416C458.591 165.416 459.135 165.48 459.647 165.608C460.223 165.736 460.703 165.928 461.087 166.184C461.791 166.696 462.143 167.432 462.143 168.392C462.143 169.352 461.919 170.056 461.471 170.504ZM449.375 183.656C449.375 184.36 449.439 185.16 449.567 186.056C449.695 186.888 450.111 187.496 450.815 187.88C451.583 188.328 452.511 188.392 453.599 188.072C454.751 187.752 455.807 187.208 456.767 186.44C457.663 185.736 458.239 184.968 458.495 184.136C458.815 183.24 458.815 182.056 458.495 180.584C458.175 179.112 457.823 177.576 457.439 175.976C457.055 174.376 456.799 172.936 456.671 171.656C455.903 172.04 455.071 172.584 454.174 173.288C453.343 173.992 452.575 174.888 451.871 175.976C451.167 177 450.559 178.152 450.047 179.432C449.599 180.712 449.375 182.12 449.375 183.656Z" fill="black"/>
</svg>
